<svg width="952" height="952" viewBox="0 0 952 952" fill="none" xmlns="http://www.w3.org/2000/svg">
<path d="M476.003 0L511 352H441L476.003 0Z" fill="white"/>
<path d="M476.501 425L490 348H463L476.501 425Z" fill="white"/>
<path d="M952 476.003L600 511V441L952 476.003Z" fill="white"/>
<path d="M527 476.501L604 490V463L527 476.501Z" fill="white"/>
<path d="M475.997 952L441 600H511L475.997 952Z" fill="white"/>
<path d="M475.499 527L462 604H489L475.499 527Z" fill="white"/>
<path d="M773.04 518.299C754.435 650.137 650.132 754.438 518.293 773.041L528.699 668.98C596.795 650.428 650.428 596.799 668.981 528.703L773.04 518.299ZM279.879 515.386C294.731 589.751 350.82 649.234 423.296 668.981L433.7 773.04C297.506 753.82 190.7 643.146 177.398 505.137L279.879 515.386ZM518.299 178.959C650.137 197.564 754.438 301.867 773.041 433.706L668.981 423.3C650.429 355.204 596.799 301.571 528.703 283.018L518.299 178.959ZM423.3 283.017C359.743 300.332 308.786 348.207 287.189 409.878L181.126 420.484C204.616 294.938 306.305 196.935 433.707 178.959L423.3 283.017Z" fill="white"/>
<path d="M0 462.997L352 428V498L0 462.997Z" fill="white"/>
<path d="M425 462.499L348 449V476L425 462.499Z" fill="white"/>
<path d="M423.174 283.058C359.617 300.373 308.66 348.248 287.063 409.919L181 420.525C204.49 294.979 306.179 196.976 433.581 179L423.174 283.058Z" fill="#0072E3"/>
</svg>
